<?xml version="1.0" standalone="no"?>
<!DOCTYPE svg PUBLIC "-//W3C//DTD SVG 20010904//EN"
 "http://www.w3.org/TR/2001/REC-SVG-20010904/DTD/svg10.dtd">
<svg version="1.0" xmlns="http://www.w3.org/2000/svg"
 width="1080.000000pt" height="1080.000000pt" viewBox="0 0 1080.000000 1080.000000"
 preserveAspectRatio="xMidYMid meet">

<g transform="translate(0.000000,1080.000000) scale(0.100000,-0.100000)"
fill="#000000" stroke="none">
<path d="M5213 9453 c-57 -20 -129 -85 -158 -144 -21 -41 -25 -62 -25 -144 0
-82 4 -103 25 -145 66 -131 243 -203 377 -154 106 38 151 74 133 104 -9 14
-46 12 -64 -3 -24 -21 -121 -57 -150 -57 -47 0 -140 36 -172 66 -17 16 -42 46
-55 66 -26 40 -32 97 -11 99 6 1 120 4 252 8 l240 6 -3 60 c-8 150 -130 257
-289 254 -32 -1 -77 -8 -100 -16z m207 -71 c61 -30 107 -88 117 -146 l5 -33
-203 -9 c-112 -5 -211 -9 -219 -9 -29 0 -23 57 12 115 26 43 44 60 88 82 72
36 127 36 200 0z"/>
<path d="M5816 9435 c-3 -9 -6 -39 -6 -66 0 -28 -7 -82 -15 -122 -8 -40 -19
-112 -25 -162 -5 -49 -15 -118 -21 -153 -13 -75 -8 -92 24 -92 38 0 46 19 58
131 18 173 39 255 78 301 38 45 105 78 157 78 27 0 37 5 43 23 13 32 6 37 -56
37 -56 0 -100 -18 -149 -62 -21 -19 -21 -19 -26 0 -3 11 -2 26 3 33 13 21 11
59 -3 59 -7 0 -23 3 -34 6 -14 4 -23 0 -28 -11z"/>
<path d="M4464 9340 c-33 -22 -70 -57 -83 -79 -14 -22 -27 -38 -31 -36 -4 2
-12 22 -20 44 -14 44 -32 56 -60 41 -15 -8 -17 -15 -9 -51 5 -23 14 -50 19
-60 6 -10 10 -31 10 -47 0 -16 6 -52 14 -78 17 -56 31 -120 50 -219 8 -38 19
-83 25 -98 6 -16 11 -39 11 -52 0 -14 6 -44 14 -67 8 -24 17 -65 21 -92 l7
-48 35 5 c45 8 50 13 35 37 -7 11 -12 30 -12 43 0 13 -9 57 -19 98 -10 41 -22
94 -25 118 -7 43 -6 44 11 29 43 -37 81 -48 173 -48 76 0 98 4 139 25 59 29
101 70 132 127 20 37 24 57 24 138 0 84 -4 102 -28 151 -32 63 -73 107 -132
138 -33 17 -57 21 -141 21 l-102 0 -58 -40z m240 -30 c77 -29 156 -150 156
-238 -1 -69 -43 -148 -105 -194 -48 -36 -53 -38 -128 -38 -65 0 -85 4 -121 25
-77 45 -118 122 -118 222 -1 98 36 165 118 210 43 24 150 31 198 13z"/>
<path d="M7282 9187 c-12 -13 -22 -28 -22 -33 0 -5 -16 -31 -35 -58 -19 -27
-35 -54 -35 -60 0 -5 -8 -19 -19 -30 -31 -35 -139 -219 -161 -277 -17 -42 -21
-70 -18 -129 3 -68 7 -80 43 -135 43 -64 88 -101 175 -143 74 -35 193 -37 257
-4 47 24 127 103 158 156 25 43 156 253 201 323 40 60 42 76 12 97 -20 14 -24
14 -41 -2 -11 -9 -26 -30 -34 -47 -8 -16 -32 -57 -53 -90 -21 -33 -58 -91 -81
-129 -77 -127 -131 -196 -177 -228 -41 -28 -55 -32 -112 -32 -68 0 -120 20
-187 71 -43 33 -93 116 -93 154 0 62 34 145 107 263 85 136 113 182 131 211 6
11 24 40 39 64 20 33 24 47 16 60 -16 25 -46 24 -71 -2z"/>
<path d="M3843 9140 c-29 -3 -58 -11 -65 -18 -6 -6 -19 -12 -28 -12 -25 0
-128 -98 -152 -143 -32 -64 -29 -204 6 -274 34 -66 111 -136 175 -157 55 -18
156 -22 166 -6 3 6 15 10 26 10 30 0 111 44 139 76 64 73 75 103 75 204 0 113
-20 166 -89 235 -75 74 -140 96 -253 85z m125 -79 c88 -46 152 -147 152 -242
0 -133 -104 -229 -247 -229 -109 0 -216 110 -230 235 -18 165 182 310 325 236z"/>
<path d="M3133 9063 c-38 -26 -42 -18 103 -237 33 -49 65 -101 73 -115 8 -14
28 -47 45 -72 17 -26 49 -75 71 -109 44 -70 44 -70 99 -157 l39 -63 28 21 c34
24 35 29 11 60 -10 13 -31 46 -48 73 -36 59 -45 74 -65 106 -9 14 -38 59 -64
100 -148 232 -265 410 -268 409 -1 0 -12 -7 -24 -16z"/>
<path d="M6407 8782 c-10 -10 -17 -27 -17 -38 0 -26 35 -64 59 -64 23 0 61 41
61 67 0 46 -71 71 -103 35z"/>
<path d="M8043 8549 c-43 -51 -110 -126 -149 -168 -39 -42 -98 -107 -130 -146
-33 -38 -83 -95 -111 -126 -29 -30 -53 -63 -53 -72 0 -16 28 -37 48 -37 6 0
79 77 164 171 84 95 204 228 266 297 l112 126 -22 23 c-12 13 -27 23 -34 23
-7 0 -48 -41 -91 -91z"/>
<path d="M2927 8581 c-59 -22 -128 -78 -165 -134 -25 -39 -27 -50 -27 -148 0
-88 3 -110 18 -126 9 -11 17 -23 17 -27 0 -5 14 -26 31 -48 67 -84 182 -128
279 -108 126 27 232 111 265 210 22 66 17 95 -14 95 -21 0 -27 -9 -43 -55 -21
-65 -76 -130 -135 -159 -78 -39 -210 -24 -257 28 -15 17 -14 20 11 46 16 15
45 41 67 59 21 17 97 81 168 141 l130 110 -55 50 c-89 80 -188 103 -290 66z
m165 -64 c29 -13 60 -32 68 -41 16 -21 28 -8 -182 -188 -70 -60 -131 -108
-137 -108 -47 0 -64 166 -24 230 30 49 63 78 120 106 61 30 89 30 155 1z"/>
<path d="M8660 8303 c-17 -5 -105 -40 -135 -53 -74 -31 -124 -53 -150 -65 -25
-11 -529 -228 -655 -281 -90 -38 -107 -61 -59 -78 20 -7 39 -3 85 18 104 48
118 54 174 77 30 12 82 34 115 49 33 15 87 38 120 51 33 13 69 29 80 36 11 7
27 13 36 13 9 0 22 7 29 15 7 8 19 15 27 15 8 0 31 7 51 16 21 9 57 25 82 36
25 11 59 25 75 33 17 7 65 28 108 46 87 37 94 43 77 64 -13 15 -32 18 -60 8z"/>
<path d="M2507 8223 c-10 -10 -8 -68 3 -79 5 -5 59 -108 119 -229 125 -250
125 -243 -2 -205 -40 11 -97 28 -127 36 -30 8 -75 21 -100 29 -25 8 -63 17
-85 21 -22 4 -44 10 -50 14 -5 5 -26 11 -46 15 -31 6 -39 3 -53 -16 -9 -13
-16 -27 -16 -30 0 -9 126 -49 151 -49 10 0 33 -6 51 -14 18 -8 71 -24 118 -36
171 -45 196 -51 241 -66 26 -8 53 -14 61 -14 17 0 58 41 58 57 0 10 -58 128
-90 183 -8 14 -41 79 -146 293 -46 91 -66 112 -87 90z"/>
<path d="M8710 8015 c-7 -8 -17 -15 -23 -15 -6 0 -27 -11 -46 -24 -108 -72
-218 -142 -235 -149 -10 -4 -35 -21 -56 -37 -21 -17 -42 -30 -48 -30 -5 0 -34
-27 -64 -59 -99 -107 -113 -208 -48 -356 21 -48 98 -136 144 -164 71 -44 200
-45 281 -4 17 9 37 19 45 24 31 16 158 94 225 138 39 26 90 58 115 73 25 14
53 34 62 45 16 17 16 20 -2 43 -16 21 -22 23 -37 12 -10 -6 -28 -16 -40 -22
-12 -5 -44 -24 -71 -42 -27 -18 -76 -50 -108 -70 -33 -21 -68 -44 -79 -50
-129 -83 -187 -108 -250 -108 -68 0 -94 10 -146 57 -86 78 -121 171 -99 264
10 40 24 63 66 105 30 29 64 60 76 67 135 83 247 154 263 168 11 9 30 20 42
23 12 4 36 20 53 36 30 28 31 30 15 59 -18 36 -18 36 -35 16z"/>
<path d="M2086 7559 c-71 -26 -115 -66 -155 -139 -31 -56 -35 -74 -36 -135 0
-86 23 -141 90 -208 75 -77 113 -92 231 -92 94 0 104 2 144 29 104 69 170 183
170 294 0 68 -9 85 -41 80 -23 -3 -24 -7 -26 -75 -2 -79 -21 -128 -75 -188
-47 -55 -95 -75 -176 -75 -105 0 -106 5 -22 157 39 70 75 135 80 143 5 8 23
43 40 77 18 35 36 65 41 68 19 12 8 36 -23 49 -99 41 -163 45 -242 15z m180
-67 c12 -7 -15 -72 -69 -164 -12 -20 -35 -60 -51 -89 -43 -80 -75 -129 -85
-129 -18 0 -63 44 -81 81 -60 116 13 275 143 311 50 14 108 10 143 -10z"/>
<path d="M9183 7180 c-3 -11 -9 -20 -13 -20 -5 0 -23 -24 -40 -52 -17 -29 -48
-76 -68 -104 -21 -29 -59 -84 -86 -123 -41 -60 -52 -70 -70 -65 -56 16 -124
37 -151 46 -53 17 -119 37 -165 49 -25 7 -59 18 -77 25 -45 20 -73 18 -73 -5
0 -38 33 -60 130 -87 52 -14 111 -32 130 -39 19 -7 49 -16 65 -20 42 -9 115
-37 115 -44 0 -7 -30 -53 -154 -235 -79 -115 -87 -132 -82 -162 4 -18 11 -36
16 -39 13 -8 21 3 168 220 97 142 134 190 148 188 10 -1 51 -11 89 -23 39 -12
90 -28 115 -36 25 -7 77 -23 115 -35 94 -29 121 -30 117 -4 -6 30 -30 53 -66
61 -17 3 -78 22 -136 40 -58 19 -112 34 -121 34 -8 0 -32 8 -52 18 l-36 17
116 172 115 172 -13 36 c-15 39 -28 45 -36 15z"/>
<path d="M1680 6953 c-66 -18 -150 -72 -188 -121 -53 -68 -79 -128 -122 -282
-11 -41 -26 -91 -32 -110 -6 -19 -15 -52 -18 -73 -8 -43 -10 -42 90 -71 30 -8
100 -29 155 -45 55 -17 114 -33 130 -36 17 -4 48 -13 70 -20 22 -7 65 -20 95
-28 30 -9 88 -26 128 -38 40 -11 79 -19 86 -16 15 6 34 55 66 167 11 41 27 96
36 121 10 30 15 85 15 163 0 111 -2 121 -31 181 -83 170 -288 259 -480 208z
m229 -83 c24 -11 48 -20 55 -20 24 0 119 -107 142 -160 31 -73 33 -186 3 -279
-34 -111 -47 -155 -54 -184 -5 -26 -9 -28 -38 -22 -18 4 -50 13 -72 20 -50 17
-212 63 -284 81 -30 7 -66 17 -80 22 -14 5 -61 20 -103 33 -43 12 -78 27 -78
33 1 18 27 119 39 149 6 16 11 37 11 48 0 34 68 163 107 203 20 21 62 51 92
66 48 25 68 29 136 29 59 0 92 -5 124 -19z"/>
<path d="M9260 5949 c-74 -3 -221 -7 -327 -8 -105 0 -194 -4 -196 -8 -3 -5 -2
-107 2 -228 10 -268 20 -304 116 -401 83 -85 113 -99 263 -121 120 -17 298 68
363 173 51 83 62 131 66 298 3 87 2 191 -2 232 l-7 74 -71 -2 c-40 -1 -133 -5
-207 -9z m218 -243 c2 -141 0 -177 -15 -215 -40 -107 -85 -159 -177 -202 -51
-24 -74 -29 -138 -29 -139 0 -247 65 -309 185 -30 59 -31 64 -36 238 -3 97 -4
178 -2 179 4 2 569 14 634 14 l40 -1 3 -169z"/>
<path d="M1969 5693 c-83 -73 -258 -217 -269 -221 -4 -2 -61 49 -127 112 -92
89 -119 111 -125 98 -11 -29 4 -66 41 -102 66 -65 286 -301 289 -311 2 -5 -18
-9 -45 -9 -96 0 -498 -20 -515 -26 -12 -3 -18 -16 -18 -35 l0 -29 153 0 c187
0 618 18 666 28 29 6 37 13 39 35 l3 27 -83 0 -84 0 -74 75 c-45 45 -70 78
-65 83 6 5 44 36 85 69 41 34 91 75 110 93 19 18 50 43 68 57 27 22 32 32 32
69 0 24 -4 44 -8 44 -4 0 -37 -26 -73 -57z"/>
<path d="M8880 5070 c-8 -5 -23 -10 -32 -10 -29 0 -103 -57 -132 -101 -64 -97
-83 -220 -47 -314 17 -44 22 -50 47 -50 26 0 29 3 26 30 -2 17 -10 43 -18 59
-19 39 -18 82 5 149 37 106 98 161 194 172 l57 7 0 -45 c0 -25 -5 -58 -11 -74
-10 -26 -22 -84 -49 -233 -6 -36 -16 -82 -22 -102 -18 -61 -9 -68 80 -68 142
0 240 70 284 203 22 69 22 116 -2 183 -36 103 -100 162 -207 190 -62 16 -151
18 -173 4z m217 -97 c74 -36 113 -100 113 -189 0 -89 -34 -150 -112 -200 -35
-22 -119 -36 -134 -22 -12 13 72 428 88 428 4 0 24 -8 45 -17z"/>
<path d="M1956 5035 c-5 -20 0 -31 29 -57 58 -50 79 -101 79 -188 0 -64 -4
-81 -26 -116 -85 -132 -290 -157 -389 -47 -46 51 -61 85 -67 149 -4 51 -1 71
17 108 28 56 25 81 -9 81 -68 0 -97 -192 -46 -301 32 -68 83 -124 141 -153 38
-19 62 -23 135 -23 132 1 210 41 276 143 27 42 29 50 29 154 0 101 -3 114 -28
163 -27 50 -94 112 -122 112 -7 0 -16 -11 -19 -25z"/>
<path d="M2170 4433 c-82 -36 -98 -43 -164 -68 -38 -15 -77 -31 -85 -35 -122
-59 -138 -69 -166 -109 -26 -37 -30 -51 -30 -109 0 -110 70 -239 163 -300 21
-14 25 -13 43 5 20 19 20 20 -39 79 -32 32 -69 80 -80 105 -41 86 -21 174 51
217 67 41 71 39 102 -35 60 -145 95 -210 130 -243 23 -22 36 -25 98 -25 60 0
77 4 104 24 49 37 66 82 60 160 -8 102 -60 188 -134 223 -24 11 -43 22 -43 24
0 10 36 44 47 44 16 0 17 15 3 41 -13 22 -14 22 -60 2z m-4 -137 c117 -55 171
-211 98 -287 -23 -24 -36 -29 -75 -29 -43 0 -51 4 -83 41 -19 23 -41 58 -47
78 -7 20 -18 45 -25 56 -8 11 -14 27 -14 36 0 9 -7 22 -15 29 -29 24 -18 54
28 76 56 28 73 28 133 0z"/>
<path d="M8599 4313 l-86 -4 -17 -35 -17 -36 38 -41 c20 -23 115 -121 210
-218 96 -97 179 -184 186 -193 15 -21 44 -12 53 16 7 22 11 17 -237 271 -79
82 -144 154 -144 160 0 9 72 13 272 17 247 5 273 7 292 24 48 44 36 46 -221
44 -134 -1 -282 -4 -329 -5z"/>
<path d="M2407 3913 c-11 -10 -8 -53 3 -53 18 0 60 -75 60 -108 0 -57 -12 -68
-151 -152 -14 -8 -69 -41 -122 -72 -53 -32 -98 -58 -100 -58 -7 0 -61 82 -74
113 -10 23 -18 28 -40 25 -37 -4 -34 -29 12 -99 19 -29 35 -61 35 -71 0 -10
-20 -28 -50 -45 -54 -30 -60 -41 -32 -66 24 -22 31 -22 85 9 l46 25 27 -40
c29 -44 44 -50 68 -25 14 14 13 19 -10 55 -13 22 -22 44 -19 49 3 5 36 28 73
50 37 23 94 59 127 80 33 22 71 44 85 50 42 19 100 82 111 122 13 49 -11 123
-54 171 -32 35 -68 53 -80 40z"/>
<path d="M8415 3871 c-155 -40 -274 -194 -263 -341 3 -43 5 -45 36 -48 l32 -3
0 58 c0 43 7 74 29 119 34 72 83 114 163 139 50 16 63 17 97 5 21 -7 45 -16
51 -20 19 -12 -2 -50 -157 -286 -18 -28 -33 -54 -33 -58 0 -5 -13 -25 -30 -46
-16 -21 -30 -44 -30 -52 0 -7 24 -24 52 -38 72 -34 203 -36 263 -3 136 73 198
248 137 386 -55 124 -229 218 -347 188z m277 -200 c19 -30 23 -50 23 -116 0
-73 -3 -83 -30 -119 -17 -22 -48 -52 -69 -68 -35 -25 -47 -28 -116 -28 -45 0
-83 5 -93 13 -20 14 -22 10 83 174 41 65 80 125 85 134 47 78 47 78 71 62 13
-8 34 -31 46 -52z"/>
<path d="M2577 3470 c-40 -12 -95 -57 -118 -94 -33 -54 -18 -183 28 -237 7 -8
13 -20 13 -26 0 -6 13 -38 29 -70 59 -119 64 -201 14 -248 -33 -30 -71 -39
-130 -30 -38 6 -54 16 -109 72 -64 65 -114 153 -114 199 0 28 -10 35 -38 27
-78 -20 53 -262 183 -338 48 -28 125 -40 181 -27 76 17 144 98 144 173 0 39
-24 119 -49 167 -6 9 -20 40 -32 67 -13 28 -29 57 -36 66 -7 8 -16 42 -19 75
-8 72 9 112 59 143 45 27 77 26 135 -3 89 -45 164 -151 192 -270 17 -73 34
-90 69 -67 13 8 13 18 1 68 -33 146 -127 275 -243 335 -45 22 -120 31 -160 18z"/>
<path d="M7944 3359 c-19 -21 -19 -22 20 -53 22 -17 74 -60 115 -96 42 -36 99
-83 126 -105 28 -22 75 -62 105 -90 58 -52 175 -149 241 -199 38 -29 39 -29
59 -11 28 26 25 39 -17 71 -21 15 -74 60 -119 99 -83 71 -134 115 -259 219
-38 32 -94 79 -123 104 -110 94 -116 96 -148 61z"/>
<path d="M7735 3102 c-153 -55 -243 -203 -214 -353 6 -35 18 -71 25 -80 8 -8
14 -20 14 -26 0 -19 83 -98 130 -122 64 -34 204 -35 268 -2 55 28 124 97 151
150 29 56 30 204 2 259 -29 57 -86 117 -138 148 -41 24 -61 28 -133 31 -47 1
-94 -1 -105 -5z m183 -81 c86 -45 152 -146 152 -234 0 -69 -46 -148 -110 -192
-41 -27 -52 -30 -125 -30 -75 0 -83 2 -127 33 -158 114 -162 320 -8 413 58 35
160 40 218 10z"/>
<path d="M7158 2943 l-27 -17 31 -55 c17 -31 36 -63 42 -71 7 -8 18 -26 24
-40 7 -14 25 -49 42 -77 33 -59 28 -64 -40 -37 -38 16 -46 15 -108 -1 -105
-28 -165 -75 -210 -160 -21 -41 -26 -64 -26 -130 0 -68 4 -89 28 -138 36 -73
115 -146 185 -171 55 -19 147 -19 187 1 10 6 37 19 58 29 51 25 106 91 132
161 l21 57 27 -42 c28 -45 41 -50 71 -28 20 15 19 18 -24 91 -17 28 -37 64
-46 80 -9 17 -21 39 -28 50 -18 30 -90 152 -107 184 -61 110 -193 331 -198
331 -4 0 -19 -8 -34 -17z m113 -364 c59 -28 105 -74 136 -133 22 -43 24 -60
21 -126 -3 -72 -6 -80 -40 -122 -67 -81 -166 -114 -256 -84 -89 30 -182 155
-182 245 0 47 39 128 81 168 39 36 119 72 165 72 16 1 50 -8 75 -20z"/>
<path d="M3356 2828 c-14 -13 -61 -72 -105 -133 -44 -60 -93 -125 -107 -143
-15 -19 -44 -57 -64 -85 -20 -29 -76 -104 -123 -167 -48 -63 -87 -123 -87
-133 0 -20 46 -45 59 -31 5 5 88 117 186 249 98 132 202 272 230 310 81 108
88 120 73 132 -29 22 -38 22 -62 1z"/>
<path d="M3550 2612 c-25 -42 -54 -91 -65 -108 -11 -17 -35 -56 -53 -85 -18
-30 -57 -92 -87 -139 -30 -47 -75 -121 -101 -165 -26 -44 -58 -94 -71 -111
l-23 -31 21 -21 c38 -42 30 -52 199 223 50 83 100 162 111 177 11 15 24 38 30
50 5 13 27 50 49 83 22 33 53 84 71 113 30 51 30 54 14 73 -30 33 -48 22 -95
-59z"/>
<path d="M3808 2523 c-84 -199 -135 -316 -154 -358 -12 -27 -34 -76 -48 -108
l-25 -57 28 -15 c26 -13 30 -13 44 3 8 9 43 84 78 167 73 170 115 225 190 245
118 32 261 -57 263 -164 1 -42 -35 -145 -99 -281 -54 -117 -62 -145 -45 -155
24 -16 60 -11 67 8 3 9 37 89 74 177 67 155 69 163 69 242 0 71 -3 87 -25 118
-28 43 -54 64 -112 94 -54 27 -187 30 -235 5 -29 -15 -31 -15 -23 2 31 77 31
75 6 95 -32 26 -35 25 -53 -18z"/>
<path d="M6410 2337 c-62 -24 -160 -113 -160 -146 0 -11 9 -22 21 -26 17 -6
31 3 65 39 86 89 196 117 292 76 56 -24 125 -93 120 -119 -2 -10 -76 -40 -218
-88 -118 -41 -223 -76 -232 -79 -56 -20 29 -166 126 -217 34 -18 57 -21 131
-21 77 1 97 5 141 27 103 53 154 141 154 262 0 60 -5 88 -25 130 -32 70 -87
130 -147 161 -64 32 -186 33 -268 1z m370 -305 c0 -89 -32 -144 -108 -188 -64
-36 -159 -38 -217 -5 -40 22 -95 84 -95 106 0 6 17 18 38 26 58 24 222 79 267
90 22 6 44 14 50 20 5 5 22 9 37 9 27 0 28 -1 28 -58z"/>
<path d="M6007 2232 c-16 -3 -18 -10 -13 -40 4 -21 11 -75 17 -121 5 -46 14
-92 19 -102 6 -10 10 -51 10 -91 0 -115 -40 -173 -147 -214 -24 -9 -43 -22
-43 -30 0 -27 13 -44 34 -44 43 0 156 76 156 106 0 6 7 17 15 24 15 12 20 0
27 -60 2 -19 10 -26 29 -28 37 -4 49 15 39 63 -9 41 -20 109 -45 270 -41 261
-40 258 -60 265 -11 3 -28 4 -38 2z"/>
<path d="M4881 2197 c-6 -8 -15 -40 -21 -73 -11 -71 -28 -155 -42 -208 l-9
-38 -67 7 c-37 3 -89 12 -117 20 -52 14 -147 34 -202 42 -31 5 -33 3 -33 -24
0 -34 27 -47 130 -62 36 -5 77 -14 91 -19 14 -6 52 -13 85 -17 102 -13 104
-15 79 -130 -24 -109 -48 -210 -50 -213 -1 -1 -47 7 -101 18 -54 11 -133 27
-174 36 -41 8 -100 21 -132 28 l-56 13 -6 -30 c-3 -17 -3 -34 1 -38 5 -4 49
-15 98 -24 121 -22 329 -64 401 -80 29 -6 31 -5 44 37 7 23 19 72 25 108 7 36
20 99 28 140 8 41 20 102 27 135 16 86 50 244 61 286 14 54 11 77 -10 89 -26
13 -36 13 -50 -3z"/>
</g>
</svg>
